<?xml version="1.0" encoding="UTF-8" standalone="no"?>
<!DOCTYPE svg PUBLIC "-//W3C//DTD SVG 1.1//EN" "http://www.w3.org/Graphics/SVG/1.1/DTD/svg11.dtd">
<svg width="100%" height="100%" viewBox="0 0 374 366" version="1.1" xmlns="http://www.w3.org/2000/svg" xmlns:xlink="http://www.w3.org/1999/xlink" xml:space="preserve" xmlns:serif="http://www.serif.com/" style="fill-rule:evenodd;clip-rule:evenodd;">
    <g transform="matrix(4.16667,0,0,4.16667,0,0)">
        <g id="Artboard1" transform="matrix(1,0,0,1,-6.58661,-5.5877)">
            <rect x="6.587" y="5.588" width="89.604" height="87.647" style="fill:none;"/>
            <clipPath id="_clip1">
                <rect x="6.587" y="5.588" width="89.604" height="87.647"/>
            </clipPath>
            <g clip-path="url(#_clip1)">
                <g transform="matrix(0.983268,0,0,0.982795,0.859851,0.850138)">
                    <path d="M80.807,41.667C80.92,41.667 81.004,41.695 81.061,41.752C81.286,41.808 81.491,41.935 81.674,42.132C81.857,42.33 81.949,42.542 81.949,42.767C81.893,43.105 81.737,43.443 81.484,43.782C81.033,45.135 80.49,46.77 79.856,48.687C79.115,50.919 78.361,53.146 77.593,55.369C81.907,54.608 85.981,54.227 89.815,54.227C90.52,54.227 91.133,54.249 91.655,54.291C92.176,54.333 92.635,54.382 93.029,54.439C93.339,54.495 93.656,54.622 93.98,54.819C94.64,55.231 95.174,55.816 95.524,56.511C95.694,56.849 95.778,57.201 95.778,57.568C95.778,57.907 95.708,58.217 95.566,58.498C95.2,59.204 94.284,60.134 92.817,61.29C92.564,61.515 92.352,61.628 92.183,61.628C92.127,61.628 92.099,61.614 92.099,61.586C92.099,61.416 92.239,61.233 92.521,61.036C94.185,59.486 95.017,58.09 95.017,56.849C95.017,55.834 94.326,55.271 92.944,55.158C92.55,55.13 92.091,55.108 91.57,55.094C90.985,55.079 90.4,55.073 89.815,55.074C87.249,55.074 84.93,55.151 82.858,55.306C80.786,55.461 78.932,55.722 77.297,56.088C68.98,79.8 58.901,92.035 47.059,92.796C42.999,93.022 39.279,91.796 35.895,89.116C32.483,86.438 30.778,83.436 30.778,80.109C30.778,79.066 31.003,78.009 31.454,76.937C33.597,71.891 40.349,67.126 51.711,62.643C59.436,59.57 67.528,57.23 75.986,55.623C76.634,54.157 77.396,51.859 78.27,48.73C78.41,48.25 78.53,47.806 78.63,47.398C78.728,46.988 78.834,46.615 78.946,46.277C78.467,46.728 77.797,47.271 76.938,47.905C75.88,48.682 74.816,49.451 73.745,50.21C72.138,51.338 70.742,52.26 69.558,52.98C68.374,53.699 67.373,54.242 66.555,54.608C66.297,54.698 66.025,54.741 65.752,54.735C64.737,54.735 64.229,54.227 64.229,53.212C64.229,52.818 64.356,52.381 64.609,51.902C65.935,49.195 68.247,46.798 71.546,44.712C74.844,42.654 77.931,41.639 80.807,41.667ZM75.817,56.257C65.639,58.4 56.73,61.205 49.089,64.673C39.87,68.96 34.33,73.427 32.47,78.08C32.139,78.944 31.967,79.861 31.963,80.787C31.963,83.775 33.443,86.411 36.403,88.695C39.533,91.091 43.057,92.205 46.976,92.035C53.799,91.782 60.283,86.679 66.429,76.727C68.345,73.603 70.074,70.369 71.609,67.042C73.223,63.533 74.629,59.932 75.818,56.258L75.817,56.257ZM57.14,13.327C57.45,13.215 57.704,13.222 57.901,13.349C58.098,13.476 58.183,13.666 58.155,13.919C58.126,14.229 57.971,14.568 57.69,14.934C57.424,15.638 57.177,16.35 56.95,17.068C56.654,17.984 56.323,18.991 55.957,20.09C55.584,21.208 55.217,22.328 54.857,23.45C54.529,24.48 54.177,25.501 53.801,26.514C55.204,26.273 56.614,26.069 58.028,25.902C59.496,25.724 60.968,25.59 62.444,25.5C63.746,25.419 65.05,25.377 66.354,25.373C67.566,25.373 68.524,25.443 69.228,25.585C69.594,25.669 69.975,25.845 70.369,26.113C70.764,26.381 71.102,26.705 71.383,27.085C71.665,27.465 71.855,27.888 71.954,28.353C72.053,28.818 71.989,29.262 71.764,29.684C71.397,30.332 70.989,30.84 70.538,31.206C70.088,31.572 69.58,31.995 69.017,32.474C68.622,32.784 68.397,32.889 68.34,32.791C68.284,32.692 68.41,32.488 68.72,32.178C69.279,31.676 69.776,31.109 70.2,30.488C70.623,29.868 70.918,29.29 71.088,28.755C71.313,27.994 71.228,27.409 70.834,27.001C70.439,26.592 69.876,26.36 69.144,26.303C68.411,26.219 67.396,26.176 66.1,26.176C64.832,26.176 63.452,26.219 61.958,26.303C60.462,26.388 58.968,26.508 57.478,26.663C55.985,26.817 54.661,27.022 53.505,27.275C52.68,29.664 51.792,32.032 50.843,34.375C49.761,37.054 48.562,39.684 47.25,42.258C45.892,44.93 44.39,47.526 42.75,50.035C41.1,52.557 39.276,54.825 37.276,56.839C35.276,58.854 33.106,60.502 30.767,61.784C28.452,63.059 25.882,63.803 23.244,63.961C21.689,64.073 20.125,63.93 18.616,63.538C17.114,63.157 15.671,62.574 14.326,61.805C13.02,61.058 11.813,60.15 10.734,59.101C9.663,58.058 8.811,56.931 8.177,55.719C7.556,54.551 7.168,53.274 7.035,51.958C6.909,50.662 7.113,49.38 7.648,48.112C8.268,46.647 9.24,45.252 10.565,43.928C11.889,42.603 13.453,41.342 15.255,40.145C17.157,38.892 19.141,37.769 21.195,36.785C25.606,34.659 30.16,32.844 34.825,31.354C37.054,30.64 39.294,29.964 41.545,29.325C43.686,28.719 45.672,28.205 47.504,27.782C49.335,27.36 50.899,27.022 52.195,26.768C52.392,26.318 52.625,25.711 52.893,24.951C53.16,24.19 53.428,23.38 53.696,22.521C53.963,21.661 54.224,20.788 54.478,19.901C54.731,19.012 54.949,18.209 55.133,17.491C55.316,16.772 55.45,16.167 55.534,15.674C55.619,15.18 55.633,14.906 55.576,14.849C55.633,14.539 55.844,14.222 56.21,13.899C56.577,13.574 56.887,13.384 57.14,13.328L57.14,13.327ZM52.026,27.444C49.096,28.064 46.074,28.79 42.96,29.621C39.876,30.443 36.824,31.38 33.81,32.431C30.892,33.446 28.022,34.596 25.21,35.876C22.462,37.13 19.975,38.461 17.75,39.87C15.524,41.279 13.622,42.772 12.044,44.35C10.466,45.928 9.339,47.562 8.663,49.253C8.212,50.352 8.05,51.465 8.177,52.592C8.309,53.737 8.653,54.848 9.191,55.867C9.741,56.924 10.487,57.91 11.431,58.826C12.4,59.76 13.487,60.563 14.664,61.214C15.919,61.907 17.263,62.426 18.658,62.756C20.109,63.109 21.61,63.256 23.159,63.2C25.808,63.088 28.309,62.306 30.661,60.855C33.014,59.403 35.191,57.558 37.191,55.318C39.191,53.078 41.009,50.605 42.643,47.9C44.216,45.309 45.662,42.643 46.976,39.912C48.229,37.292 49.279,34.876 50.124,32.664C50.97,30.452 51.604,28.712 52.026,27.444ZM79.114,42.724C78.804,42.612 78.156,42.682 77.169,42.936C75.111,43.416 73.067,44.43 71.037,45.981C68.894,47.672 67.527,49.392 66.935,51.141C66.907,51.281 66.885,51.394 66.871,51.479C66.855,51.591 66.849,51.704 66.851,51.817C66.851,52.719 67.189,53.17 67.865,53.17C68.457,53.17 70.191,52.141 73.067,50.083C74.09,49.363 75.098,48.623 76.091,47.863C76.824,47.305 77.536,46.719 78.226,46.108C78.931,45.572 79.326,44.797 79.41,43.782C79.41,43.754 79.396,43.739 79.368,43.739L79.368,43.697C79.368,43.613 79.382,43.557 79.41,43.528C79.41,43.021 79.312,42.753 79.114,42.724ZM59.423,6.016C59.705,5.96 59.987,6.051 60.269,6.291C60.551,6.531 60.635,6.777 60.522,7.031C60.438,7.509 60.057,8.059 59.382,8.679C58.677,9.299 58.142,9.552 57.775,9.439C57.183,9.327 56.888,9.087 56.888,8.721C56.888,8.327 57.212,7.805 57.86,7.157C58.508,6.481 59.029,6.101 59.423,6.017L59.423,6.016Z" style="fill:white;stroke:white;stroke-width:0.76px;"/>
                </g>
            </g>
        </g>
    </g>
</svg>
