<?xml version="1.0" encoding="UTF-8" standalone="no"?>
<!DOCTYPE svg PUBLIC "-//W3C//DTD SVG 1.1//EN" "http://www.w3.org/Graphics/SVG/1.1/DTD/svg11.dtd">
<svg width="2600px" height="3146px" version="1.1" xmlns="http://www.w3.org/2000/svg" xmlns:xlink="http://www.w3.org/1999/xlink" xml:space="preserve" xmlns:serif="http://www.serif.com/" style="fill-rule:evenodd;clip-rule:evenodd;stroke-linejoin:round;stroke-miterlimit:2;">
    <g transform="matrix(1,0,0,1,-7566.37,-5418.61)">
        <g transform="matrix(18.3367,0,0,18.2738,4169.2,2863.89)">
            <g>
                <g>
                    <g transform="matrix(1,0,0,1,-4.21506,-2.44348)">
                        <path d="M303.276,237.844C303.276,237.844 323.135,229.651 329.661,245.859C329.661,245.859 333.833,259.307 328.755,267.531C323.708,275.719 312.25,288.474 291.385,290.292L297.552,278.094C297.552,278.094 313.339,273.177 318.417,265.167C318.417,265.167 324.401,256.057 318.052,249.5C315.474,246.839 311.719,243.792 303.276,250.292L303.276,237.844" style="fill:white;fill-rule:nonzero;"/>
                    </g>
                    <g transform="matrix(1,0,0,1,-4.21506,-2.44348)">
                        <path d="M302.589,220.698L190.167,220.698C188.083,260.641 190.719,275.484 198.495,289.557C213.068,315.943 246.38,314.349 246.38,314.349C246.38,314.349 279.693,315.943 294.266,289.557C302.042,275.484 304.672,260.641 302.589,220.698" style="fill:rgb(196,196,196);fill-rule:nonzero;"/>
                    </g>
                    <g transform="matrix(1,0,0,1,-4.21506,-2.44348)">
                        <path d="M274.151,220.698L190.167,220.698C188.083,260.635 190.87,275.401 198.495,289.557C215.375,320.891 243.214,310.443 249.438,307.781C268.776,299.521 287.156,275.12 274.151,220.698" style="fill:white;fill-rule:nonzero;"/>
                    </g>
                    <g transform="matrix(1,0,0,1,-4.21506,-2.44348)">
                        <path d="M303.276,220.698C303.276,225.526 277.953,229.438 246.719,229.438C215.49,229.438 190.167,225.526 190.167,220.698C190.167,215.87 215.49,211.958 246.719,211.958C277.953,211.958 303.276,215.87 303.276,220.698" style="fill:white;fill-rule:nonzero;"/>
                    </g>
                    <g transform="matrix(1,0,0,1,-4.21506,-2.44348)">
                        <path d="M227.083,212.5C231.458,212.313 209.688,219.297 214.281,224.458C216.302,226.734 202.26,226.094 202.26,226.094C202.26,226.094 192.781,225.646 190.167,220.698C190.167,220.698 190.167,214.047 227.083,212.5" style="fill:rgb(196,196,196);fill-rule:nonzero;"/>
                    </g>
                    <g transform="matrix(1,0,0,1,0.639182,0.329249)">
                        <path d="M202.26,226.094C202.26,226.094 245.604,218.276 290.115,226.302C290.115,226.302 248.891,234.625 202.26,226.094" style="fill:rgb(196,196,196);fill-rule:nonzero;"/>
                    </g>
                    <g transform="matrix(-1,0,0,1,488.659,0.780087)">
                        <g transform="matrix(1,0,0,1,-3.40516,11.5946)">
                            <path d="M234.005,203.313C234.005,203.313 249.167,185.479 241.24,176.495C236.786,171.438 229.089,169.177 238.198,149.672C238.198,149.672 237.245,162.766 244.885,171.62C249.958,177.495 256.526,188.073 234.005,203.313" style="fill:white;fill-rule:nonzero;"/>
                        </g>
                        <g transform="matrix(1,0,0,1,-3.40516,11.5946)">
                            <path d="M246.276,204.531C246.276,204.531 268.068,178.901 256.672,165.979C250.271,158.714 239.203,155.464 252.302,127.427C252.302,127.427 250.927,146.25 261.911,158.969C269.203,167.422 278.651,182.625 246.276,204.531" style="fill:rgb(196,196,196);fill-rule:nonzero;"/>
                        </g>
                    </g>
                </g>
            </g>
        </g>
        <g transform="matrix(2.6991,0,0,2.6991,-10275.6,5607.64)">
            <g transform="matrix(1,0,0,1,178.137,-288.589)">
                <g>
                    <g transform="matrix(0.525298,0,0,0.53097,5388.69,185.779)">
                        <g>
                            <path d="M2333.03,1643.04C2308.44,1643.04 2283.86,1643.04 2259.27,1643.04C2259.27,1576.41 2259.27,1509.77 2259.27,1443.13C2259.27,1432.33 2258.82,1421.48 2257.15,1410.79C2255.98,1403.23 2254.25,1395.61 2250.81,1388.72C2245.12,1376.15 2233.63,1367.39 2221.38,1361.72C2221.38,1361.45 2221.38,1361.18 2221.38,1360.91C2262.63,1360.91 2303.87,1360.91 2345.12,1360.91C2351.82,1360.91 2358.52,1361.1 2365.21,1361.53C2370.25,1361.85 2375.28,1362.32 2380.3,1362.95C2384.2,1363.44 2388.09,1364.04 2391.95,1364.77C2414.01,1368.89 2436.82,1377.32 2451.47,1395.15C2453.75,1397.93 2455.79,1400.9 2457.58,1404.01C2460.22,1408.63 2462.29,1413.57 2463.79,1418.67C2466.25,1426.99 2467.24,1435.69 2467.24,1444.34C2467.24,1459.29 2462.63,1474.19 2453.13,1485.86C2442.84,1498.51 2427.89,1506.39 2412.43,1510.85C2416,1511.81 2419.48,1513.12 2422.79,1514.78C2442.86,1524.82 2454.08,1545.98 2460.79,1566.47C2465.49,1580.44 2470.2,1594.41 2474.9,1608.38C2478.79,1619.93 2482.69,1631.49 2486.59,1643.04C2461.19,1643.04 2435.8,1643.04 2410.41,1643.04C2403.83,1620.61 2397.24,1598.17 2390.66,1575.74C2389.93,1573.29 2389.14,1570.86 2388.27,1568.46C2383.28,1554.79 2374.78,1539.69 2359.55,1535.92C2357.07,1535.31 2354.52,1535.03 2351.97,1535.03C2345.66,1535.03 2339.34,1535.03 2333.03,1535.03C2333.03,1571.03 2333.03,1607.04 2333.03,1643.04ZM2333.03,1404.04C2333.03,1433.33 2333.03,1462.62 2333.03,1491.9C2338.39,1493.44 2343.96,1494.32 2349.55,1494.32C2361.54,1494.32 2373.71,1490.6 2382.2,1481.83C2391.09,1472.64 2394.29,1459.63 2394.29,1447.16C2394.29,1434.73 2391.66,1421.1 2382.14,1412.28C2380.37,1410.63 2378.41,1409.2 2376.32,1407.98C2373.22,1406.18 2369.86,1404.88 2366.41,1403.96C2361.05,1402.54 2355.49,1402.02 2349.95,1402.02C2344.26,1402.02 2338.53,1402.51 2333.03,1404.04Z" style="fill:rgb(255,122,35);fill-rule:nonzero;"/>
                            <path d="M2599.84,1643.04C2575.26,1643.04 2550.67,1643.04 2526.08,1643.04C2526.08,1576.41 2526.08,1509.77 2526.08,1443.13C2526.08,1432.33 2525.63,1421.48 2523.97,1410.79C2522.79,1403.23 2521.06,1395.61 2517.62,1388.72C2511.93,1376.15 2500.45,1367.39 2488.2,1361.72C2488.2,1361.45 2488.2,1361.18 2488.2,1360.91C2525.41,1360.91 2562.63,1360.91 2599.84,1360.91C2599.84,1454.96 2599.84,1549 2599.84,1643.04Z" style="fill:rgb(255,122,35);fill-rule:nonzero;"/>
                            <path d="M2737.28,1474.17L2821.92,1474.17C2821.92,1487.2 2821.92,1500.23 2821.92,1513.26C2793.7,1513.26 2765.49,1513.26 2737.28,1513.26L2737.28,1643.04C2712.69,1643.04 2688.11,1643.04 2663.52,1643.04L2663.52,1443.13C2663.52,1432.33 2663.07,1421.48 2661.41,1410.79C2660.23,1403.23 2658.5,1395.61 2655.06,1388.72C2649.37,1376.15 2637.88,1367.39 2625.64,1361.72C2625.64,1361.45 2625.64,1361.18 2625.64,1360.91L2840.46,1360.91C2840.46,1384.56 2840.46,1408.2 2840.46,1431.85C2840.19,1431.85 2839.92,1431.85 2839.65,1431.85C2838.87,1428.6 2837.72,1425.42 2836.14,1422.47C2835.12,1420.54 2833.91,1418.7 2832.53,1417C2822.72,1404.82 2806.15,1401.14 2791.3,1400.24C2788.61,1400.08 2785.92,1400.01 2783.22,1400.01C2767.91,1400.01 2752.59,1400.01 2737.28,1400.01L2737.28,1474.17Z" style="fill:rgb(255,122,35);fill-rule:nonzero;"/>
                            <path d="M2895.67,1360.91C2929.66,1360.91 2963.65,1360.91 2997.64,1360.91C3035.8,1454.96 3073.95,1549 3112.11,1643.04C3084.3,1643.04 3056.49,1643.04 3028.68,1643.04C3019.54,1618.73 3010.41,1594.41 3001.27,1570.09C2971.71,1570.09 2942.16,1570.09 2912.6,1570.09C2904.27,1594.41 2895.94,1618.73 2887.61,1643.04C2870.68,1643.04 2853.76,1643.04 2836.83,1643.04C2864.24,1568.62 2891.64,1494.19 2919.05,1419.76C2921.39,1412.75 2923.48,1405.45 2923.48,1397.99C2923.48,1395.06 2923.15,1392.11 2922.42,1389.26C2919.06,1376.05 2907.49,1367.2 2895.67,1361.72C2895.67,1361.45 2895.67,1361.18 2895.67,1360.91ZM2986.36,1531C2976.01,1501.71 2965.67,1472.42 2955.32,1443.13L2954.92,1443.13C2945.25,1472.42 2935.57,1501.71 2925.9,1531C2946.05,1531 2966.2,1531 2986.36,1531Z" style="fill:rgb(255,122,35);fill-rule:nonzero;"/>
                            <path d="M3223.35,1643.04C3198.76,1643.04 3174.17,1643.04 3149.59,1643.04C3149.59,1576.41 3149.59,1509.77 3149.59,1443.13C3149.59,1432.33 3149.14,1421.48 3147.47,1410.79C3146.3,1403.23 3144.57,1395.61 3141.12,1388.72C3135.44,1376.15 3123.95,1367.39 3111.7,1361.72C3111.7,1361.45 3111.7,1361.18 3111.7,1360.91C3148.92,1360.91 3186.13,1360.91 3223.35,1360.91L3223.35,1643.04Z" style="fill:rgb(255,122,35);fill-rule:nonzero;"/>
                        </g>
                    </g>
                </g>
            </g>
            <g transform="matrix(0.655677,0,0,0.655677,5586.58,262.331)">
                <g transform="matrix(205.481,0,0,205.481,2413.51,1008.38)">
                </g>
                <text x="1884.6px" y="1008.38px" style="font-family:'STHeitiSC-Light', 'Heiti SC';font-weight:300;font-size:205.481px;fill:rgb(255,122,35);">CAFE</text>
            </g>
        </g>
    </g>
</svg>
